<svg width="53" height="20" viewBox="0 0 53 20" fill="none" xmlns="http://www.w3.org/2000/svg">
<path d="M32.4126 19.8438C30.0164 19.4547 28.6045 18.8239 27.3425 17.5786C26.6727 16.9176 26.4233 16.5808 26.0836 15.8785C25.4672 14.6039 25.122 12.5358 25.468 12.1898C25.6468 12.011 29.2978 12.0157 29.439 12.1949C29.4949 12.2658 29.5698 12.6178 29.6056 12.9773C29.6936 13.861 29.9726 14.4438 30.5916 15.0373C31.6686 16.07 33.2024 16.5478 35.3904 16.5322C38.3779 16.5109 40.4797 15.5872 41.2636 13.9509C41.5049 13.4473 41.5503 13.2173 41.5545 12.4783C41.56 11.5147 41.3962 11.061 40.7964 10.3778C39.7478 9.18353 37.3914 8.55093 34.5661 8.70526C32.5224 8.81689 31.157 9.22095 29.8264 10.1079L29.2082 10.5199L27.3999 10.5202C26.1305 10.5204 25.5548 10.4837 25.468 10.3969C25.2898 10.2188 25.2898 0.312558 25.468 0.134417C25.6472 -0.0448055 44.0003 -0.0448055 44.1795 0.134417C44.3643 0.319252 44.3511 3.13991 44.1646 3.29464C44.0663 3.37625 41.9222 3.41727 36.7717 3.43605L29.5173 3.46254L29.4447 4.85354C29.4048 5.61859 29.3512 6.32568 29.3256 6.42485C29.2654 6.658 29.295 6.65358 29.8081 6.35292C30.5511 5.91758 32.059 5.48728 33.2952 5.35784C34.8951 5.19032 37.7841 5.29128 39.0482 5.55891C43.4099 6.4823 45.8487 8.92044 45.8487 12.3575C45.8487 16.2299 43.5293 18.7284 39.0258 19.7074C37.7409 19.9868 33.7945 20.0681 32.4126 19.8438ZM48.4823 19.7714C48.3403 19.5687 48.3225 18.4714 48.325 10.0602C48.3274 2.69358 48.3566 0.520044 48.4565 0.319933L48.585 0.0623408L50.4749 0.0342146C51.7814 0.0147626 52.4086 0.0425088 52.5069 0.124108C52.626 0.22294 52.6491 1.82235 52.6491 9.95915C52.6491 18.6554 52.6321 19.6932 52.4872 19.8381C52.3521 19.9732 52.0205 20 50.4838 20C48.6988 20 48.6375 19.993 48.4823 19.7714ZM16.2771 19.726C15.2235 19.5631 13.5877 18.8851 12.3359 18.0924C11.9071 17.8209 11.7434 17.6545 11.7434 17.49C11.7434 17.365 12.1256 16.6499 12.5927 15.9009C13.5521 14.3624 13.6125 14.3263 14.3634 14.843C16.3044 16.1784 17.8398 16.4214 18.6324 15.5187C19.0281 15.068 19.1249 14.559 18.9653 13.7688C18.8408 13.1522 16.7747 7.8112 16.5612 7.55397C16.4999 7.48003 16.3571 7.43337 16.244 7.45027C16.1117 7.47005 15.0682 8.75 13.3208 11.0358C11.8262 12.9909 9.81452 15.6222 8.8504 16.8831C7.75824 18.3115 7.03031 19.1757 6.9193 19.1757C6.68852 19.1757 4.09565 17.2678 3.97575 17.0097C3.86137 16.7636 3.54965 17.2008 7.57399 11.9631C9.42454 9.55462 11.7975 6.45965 12.8472 5.08539L14.7557 2.58675H16.7884C18.5953 2.58675 18.8386 2.60678 18.9794 2.76706C19.0664 2.86623 19.6565 4.19927 20.2907 5.72937C22.9706 12.1952 23.1805 12.8236 23.1805 14.3793C23.1805 16.0334 22.7128 17.2857 21.7249 18.2763C21.0599 18.9432 19.9804 19.5179 19.0708 19.6893C18.5433 19.7887 16.8283 19.8113 16.2771 19.726ZM1.80038 12.1484C1.16471 11.9272 0.521949 11.1093 0.373891 10.3332C0.284867 9.86651 0.460313 9.15239 0.784248 8.66289C1.40946 7.71813 2.97791 7.44033 3.93628 8.10461C5.02565 8.8597 5.25384 10.4648 4.41627 11.4809C3.85328 12.1639 2.69464 12.4595 1.80038 12.1484ZM7.17724 5.3225C6.27615 5.00113 5.67075 4.12633 5.66653 3.13952C5.66285 2.27591 6.04562 1.60132 6.78653 1.16576C7.79729 0.571565 9.21232 0.902659 9.86277 1.88555C10.2545 2.47753 10.3159 3.51441 9.998 4.17104C9.73336 4.71773 9.21933 5.13623 8.57396 5.33046C7.9946 5.50482 7.68349 5.50306 7.17724 5.3225Z" fill="black"/>
</svg>
