<svg width="157" height="136" viewBox="0 0 157 136" fill="none" xmlns="http://www.w3.org/2000/svg">
<path d="M17.4111 59.2746L11.16 55.1304C14.2892 50.4103 19.3773 47.8372 24.1776 46.9885C28.9947 46.1368 34.6088 46.8213 39.2129 50.0068L35.1534 55.8741L39.2129 50.0068C48.8392 56.6672 50.8916 70.6246 43.3989 79.6982C40.6086 83.0772 36.6926 85.1436 32.8821 86.1142C29.0467 87.0911 24.6732 87.1279 20.6031 85.7143C17.0463 84.479 14.1763 81.9127 12.1858 79.3844C10.1437 76.7904 8.43772 73.4953 7.7616 69.9574M17.4111 59.2746L7.7616 69.9574M17.4111 59.2746L11.16 55.1304C9.71735 57.3065 8.7088 59.7974 8.12554 62.1672M17.4111 59.2746L8.12554 62.1672M7.7616 69.9574C7.24486 67.2535 7.56091 64.4613 8.12554 62.1672M7.7616 69.9574L8.12554 62.1672M50.4593 47.7911C52.3324 48.458 54.3442 48.9734 56.6646 48.9866C58.9197 48.9994 60.9712 48.5328 62.9025 47.9526L62.9025 47.9526C68.2545 46.3448 72.9197 42.7492 75.4148 37.6042C76.9955 34.3448 77.4493 30.6423 77.2575 27.4075C77.0667 24.1872 76.1824 20.5387 74.1653 17.4962C68.3623 8.74294 56.0881 5.84503 47.0055 11.1749C40.5692 14.9518 37.0391 21.1798 37.0709 28.6356V28.6357C37.1074 37.1488 42.351 44.9045 50.4593 47.7911ZM50.4593 47.7911L52.9748 40.7255M50.4593 47.7911L52.9748 40.7255M52.9748 40.7255C55.791 41.7282 57.5217 41.738 60.7446 40.7698C64.3348 39.6912 67.1943 37.3673 68.6665 34.3315C70.4348 30.6853 70.0935 24.9276 67.9142 21.6404C64.2958 16.1824 56.4241 14.3438 50.8013 17.6434C46.6797 20.062 44.5504 23.808 44.5708 28.6036C44.5943 34.0833 47.9621 38.941 52.9748 40.7255ZM124.261 21.5824L124.261 21.5821C121.792 18.7749 118.575 18.3863 116.625 18.2261C114.553 18.0559 111.34 18.034 106.441 18.034H95.1331H91.4283L89.1768 20.9763L78.5598 34.8512C72.7269 42.474 59.5315 59.6538 49.2386 73.0259C47.5761 75.1857 46.0437 77.1756 44.6315 79.0092C36.6062 89.43 32.4678 94.8037 30.4367 97.6472C29.8287 98.4985 29.2985 99.2758 28.881 99.9732C28.5391 100.544 27.898 101.659 27.5723 103.055C27.0984 105.086 27.4125 107.071 28.305 108.747C28.4083 108.941 28.5285 109.141 28.6232 109.293C29.1312 110.206 29.7124 110.841 29.8861 111.03L29.9041 111.05C30.2443 111.423 30.6022 111.769 30.9107 112.054C31.5387 112.636 32.2999 113.281 33.0867 113.922C34.68 115.22 36.6918 116.758 38.6813 118.22C40.6697 119.68 42.7248 121.129 44.4104 122.239C45.2394 122.784 46.0742 123.311 46.8105 123.726C47.1673 123.927 47.6261 124.174 48.1194 124.392C48.3647 124.5 48.7289 124.651 49.166 124.786C49.4991 124.889 50.3904 125.152 51.5399 125.152C53.5885 125.152 55.0573 124.313 55.3932 124.121L55.4094 124.112C55.9642 123.796 56.3928 123.466 56.6413 123.265C57.1577 122.848 57.6264 122.39 57.9855 122.023C58.7389 121.253 59.6313 120.241 60.5963 119.098C62.5548 116.777 65.1671 113.489 68.2365 109.482C69.1456 108.295 70.2221 106.89 71.4236 105.321C71.4099 105.359 71.3964 105.398 71.3831 105.436C71.3803 105.444 71.377 105.454 71.3731 105.465C71.2799 105.732 70.8763 106.886 70.8763 108.291C70.8763 111.545 72.5954 113.795 73.7869 115.005C74.9432 116.178 76.3734 117.16 77.6649 117.976C85.1829 122.728 95.2593 127.01 102.452 128.12C104.678 128.463 108.408 128.53 111.515 128.49C114.601 128.449 118.334 128.287 120.524 127.874C127.096 126.638 134.46 122.712 139.208 117.958L133.902 112.658L139.208 117.958C146.361 110.799 149.5 101.803 149.5 91.0176C149.5 80.515 147.489 75.364 132.851 40.1088C131.069 35.8188 129.343 31.7877 127.991 28.7399C127.318 27.2223 126.721 25.9092 126.247 24.9159C126.014 24.426 125.784 23.9573 125.574 23.5587C125.471 23.3629 125.341 23.1244 125.197 22.8815L125.189 22.8677C125.103 22.7237 124.768 22.1592 124.261 21.5824ZM92.9256 85.0366C91.1753 84.4106 89.1939 84.2146 87.1962 84.7272C89.2449 82.0522 91.247 79.4379 93.1055 77.0112C96.753 72.2483 99.8237 68.3057 102.264 65.2451C103.146 67.4421 104.102 69.8713 105.056 72.3338C106.598 76.3113 108.117 80.3325 109.287 83.5531C109.874 85.167 110.361 86.5471 110.716 87.6053C110.994 88.4355 111.128 88.8832 111.178 89.0521C111.202 89.1324 111.207 89.1497 111.2 89.115C111.534 90.768 111.468 91.5179 111.416 91.7889C111.394 91.904 111.37 91.9618 111.347 92.0064C111.321 92.0576 111.251 92.1823 111.068 92.3909C111.065 92.394 111.062 92.3982 111.057 92.4035C110.971 92.5131 110.538 93.06 108.391 92.7209C105.903 92.3278 102.136 90.8023 97.1967 87.4099L92.9508 93.5923L97.1967 87.4099C97.159 87.384 97.1197 87.357 97.0789 87.3289C96.2015 86.7249 94.6385 85.6492 92.9256 85.0366Z" fill="#E95BE3" stroke="#17191D" stroke-width="15"/>
</svg>
